#!OML:ASF E:/inclinewalkrobotboard/Project1/Captureday1/Session1/subject1.ASF
:FULLY-SPECIFIED
:DEGREES
13
root 0 0 0 2.8127598473653244 -5.676247425646885 -3.9272235988748765
lowerback 7.702362822234805 0.5967359466336735 0.6559808985268787
upperback -1.2350637465024548 0.9812315999709804 1.6959044237030385
thorax -5.515059903989222 0.5131592290131846 1.3847974444990094
lowerneck -15.87392365368229 -2.3808310406891886 -1.5195440734101913
upperneck 20.12158381145339 -3.170318611130839 1.1208139536465445
head 9.045982654041445 -1.470176962385815 0.2068610776013382
rclavicle -6.816217603083579E-16 -4.699656501482086E-16
rhumerus -25.045247156151632 -18.73929414644082 -75.69084648740265
rradius 27.015599980699765
rwrist 5.861232033865434
rhand -16.33805347957232 21.407982616099996
rfingers 7.125020000000045
rthumb 9.858409448108686 -8.137230815400212
lclavicle -6.131977372552269E-16 -3.5855593087029265E-16
lhumerus -28.65412871888583 1.6378722254708933 76.31048935462695
lradius 29.018809558517766
lwrist 2.342730654195881
lhand -22.5762287396465 23.386368084697157
lfingers 7.1250200000000214
lthumb 3.7929975142229537 52.91780465310799
rfemur -5.879029733019081 -4.217363791404765 17.72195686482206
rtibia 39.31413665209976
rfoot -8.410950294920365 -7.661616226338385
rtoes 5.740702899711653
lfemur -13.460215542105168 -0.7766198152657964 -20.60206515658217
ltibia 33.864266517407174
lfoot -9.072007828604159 -0.7849237201869208
ltoes -2.2962620463467687
14
root 0 0 0 2.268132321811457 -5.341698969852487 -3.770319266465904
lowerback 7.964918304220549 0.5760404657290678 0.6837501631270881
upperback -1.0539994906703747 0.9598103038571426 1.6898486429878516
thorax -5.4683310251624455 0.5003191757844032 1.3565934254480028
lowerneck -15.97712488339512 -2.4527136884258764 -1.5659134329126119
upperneck 20.063287049342442 -3.2474911730117126 1.0594534703230485
head 9.039835464859456 -1.5135968608964938 0.1878998176040826
rclavicle -6.821422292739001E-16 -4.672623179913142E-16
rhumerus -25.144308713906987 -18.72805162349204 -75.7690752960105
rradius 27.00967585287337
rwrist 5.820399912428222
rhand -16.387278232955488 21.447276039636392
rfingers 7.125020000000046
rthumb 9.811092414140692 -8.103707450186665
lclavicle -6.284269458125978E-16 -3.5060714605214196E-16
lhumerus -28.93768635585174 1.585687066421336 76.74482022661181
lradius 28.93885570533137
lwrist 2.542790236356689
lhand -22.897640130526128 23.380535674445223
lfingers 7.125020000000027
lthumb 3.480745676355152 52.949343268280764
rfemur -5.9314226383455235 -4.153184080900488 17.786919891042515
rtibia 39.309792995771865
rfoot -8.403572583771753 -7.653925664212885
rtoes 5.727140832217657
lfemur -13.098751927519025 -0.8807648774639727 -20.520100392224087
ltibia 33.74294096616735
lfoot -8.94724516424565 -0.9603437611378851
ltoes -2.4353070807496042
15
root 0 0 0 1.8315863127518561 -5.064474797584431 -3.6373373800302753
lowerback 8.17326778588972 0.5578472150163207 0.7021632203753754
upperback -0.9096673327141236 0.9398017985488427 1.6864523307814259
thorax -5.43135197839692 0.4887973768704932 1.3370614368645959
lowerneck -16.058065331091356 -2.51123797130976 -1.6045895764499092
upperneck 20.017941338036856 -3.309961607508966 1.0108414444539546
head 9.035255489437509 -1.5489656623811066 0.173037321631893
rclavicle -6.804769792698441E-16 -4.632281173910723E-16
rhumerus -25.088038844982364 -18.73128314697702 -75.75403036808979
rradius 27.00689816635846
rwrist 5.851133406645825
rhand -16.369269693458538 21.431598460029498
rfingers 7.125020000000045
rthumb 9.827383900779614 -8.116308923342228
lclavicle -6.398170703999179E-16 -3.444233386791356E-16
lhumerus -29.13699293167531 1.550996794694667 77.05115902224772
lradius 28.880785957865463
lwrist 2.6810827854618484
lhand -23.127123337887685 23.376985610179702
lfingers 7.125020000000029
lthumb 3.25823619373633 52.97238109065135
rfemur -5.815871707835626 -4.291792497253567 17.649851310872876
rtibia 39.317450761038735
rfoot -8.417113557713003 -7.672186235066411
rtoes 5.752897713703213
lfemur -12.92990340836512 -0.9273607527394034 -20.48125495770453
ltibia 33.6950508548385
lfoot -8.883378386305006 -1.044026431553462
ltoes -2.5014355147101224
16
root 0 0 0 1.4773964877757209 -4.8246226304036615 -3.5220800190148465
lowerback 8.338973100880143 0.5407131272863784 0.7132621446876604
upperback -0.794162123008519 0.9203483566824469 1.68573566956317
thorax -5.401291623171877 0.4778697769911867 1.324927804225747
lowerneck -16.120765893516477 -2.561018489190994 -1.6382178157381715
upperneck 19.985733375652387 -3.3631815021444074 0.9712309185192538
head 9.032931016324069 -1.5796085436091722 0.160970832079673
rclavicle -6.778803776468971E-16 -4.630240525345559E-16
rhumerus -24.985647583481594 -18.740612514374753 -75.70327901328575
rradius 27.007146117963256
rwrist 5.90011744786667
rhand -16.3310177234549 21.399247942508843
rfingers 7.1250200000000445
rthumb 9.86328802198475 -8.143331592747131
lclavicle -6.486487184733503E-16 -3.3986965754708474E-16
lhumerus -29.28777646883089 1.5250610425616715 77.28607748343805
lradius 28.836877925253685
lwrist 2.7872855367695912
lhand -23.30422482407897 23.3737130049661
lfingers 7.125020000000032
lthumb 3.0869607811872477 52.9896942348952
rfemur -5.598612975452241 -4.552923921571974 17.395939749247162
rtibia 39.32503046407426
rfoot -8.446453634978065 -7.706373769390096
rtoes 5.800108896364176
lfemur -12.84437909055093 -0.9501627479547121 -20.46219162204177
ltibia 33.67409918568608
lfoot -8.848598396989573 -1.0867339708902009
ltoes -2.5360745226576533
17
root 0 0 0 1.1734722343733388 -4.609288463680954 -3.417743780903791
lowerback 8.478896269415408 0.5244543093589369 0.7200069494172094
upperback -0.695988785765481 0.9013955998107123 1.6864525308315628
thorax -5.375518661013505 0.46744733714301506 1.3171516127537233
lowerneck -16.17262742766643 -2.6051380595679476 -1.6685338813703745
upperneck 19.96072254613094 -3.4103369690185397 0.9372611871941059
head 9.031690748453817 -1.6070618054193506 0.15068502344466883
rclavicle -6.753894233188796E-16 -4.632717228926169E-16
rhumerus -24.857381530980263 -18.752938061882915 -75.63260152058781
rradius 27.008550078002738
rwrist 5.961145156426074
rhand -16.28014196659849 21.356710559483105
rfingers 7.125020000000044
rthumb 9.911448739095244 -8.17914700982199
lclavicle -6.553079181258535E-16 -3.3624153475623216E-16
lhumerus -29.403177566450125 1.5051235124425055 77.46865869760913
lradius 28.803316756823087
lwrist 2.8699821991560484
lhand -23.441607332904628 23.370516918436
lfingers 7.125020000000034
lthumb 2.9542377071235144 53.00255700642509
rfemur -5.357126091535704 -4.84374019575904 17.11347968208564
rtibia 39.332801615606485
rfoot -8.47952604606862 -7.744514122623899
rtoes 5.852893847845603
lfemur -12.815604257177213 -0.9563081960625599 -20.455948841512896
ltibia 33.67408533382518
lfoot -8.831678047457213 -1.1020765099979855
ltoes -2.5490633590213623
18
root 0 0 0 0.5523390863125712 -4.194809807920821 -3.2168047216398747
lowerback 8.770655761757826 0.4951807235040132 0.7400354350439136
upperback -0.4929549192731475 0.8675551436821076 1.6850809606918762
thorax -5.323702831540634 0.44856998371882223 1.295341012559534
lowerneck -16.28296487042726 -2.690710844022859 -1.7269327687109535
upperneck 19.901632586389013 -3.5020711958704154 0.869062328200227
head 9.026531219573426 -1.6597735492598271 0.1299759450759962
rclavicle -6.743211395873223E-16 -4.639879894863668E-16
rhumerus -24.928278512356925 -18.74510698496698 -75.68955497292032
rradius 27.00621888002814
rwrist 5.926102889137152
rhand -16.31628777399139 21.385333180324857
rfingers 7.1250200000000445
rthumb 9.875742289218664 -8.15390436982012
lclavicle -6.682504982965742E-16 -3.2373403644267425E-16
lhumerus -29.6989761140848 1.4455918526725844 77.94390653460718
lradius 28.722728774977323
lwrist 3.0892521570786347
lhand -23.7871462823484 23.36008746213531
lfingers 7.125020000000039
lthumb 2.6205431795202863 53.03151807432543
rfemur -5.659323244576655 -4.472522116384354 17.476249812012114
rtibia 39.308019159611376
rfoot -8.441376833629818 -7.6973190176649915
rtoes 5.778173458528663
lfemur -12.531486346070288 -1.034660848587885 -20.392869521107496
ltibia 33.589546159869116
lfoot -8.72437753158203 -1.2424611072312963
ltoes -2.6627615982175126
19
root 0 0 0 0.37430025315265425 -4.040906147566778 -3.1408098788449026
lowerback 8.84585684390617 0.4811143106616639 0.7363412744956928
upperback -0.4382233050997151 0.8501941724432049 1.6891317762209175
thorax -5.308321629046629 0.4395089611165275 1.2982450266404806
lowerneck -16.307675801764812 -2.721053276789501 -1.7488656524603488
upperneck 19.895517735772614 -3.5348170624317024 0.8487873709994771
head 9.028285137803206 -1.679621220646281 0.12394757082534669
rclavicle -6.725927793163983E-16 -4.656277185975564E-16
rhumerus -24.75437654255923 -18.76384348588511 -75.57688999029413
rradius 27.00997760245326
rwrist 6.010196314099449
rhand -16.241661977658463 21.323763600078152
rfingers 7.125020000000043
rthumb 9.947755169812918 -8.20684303041044
lclavicle -6.701093138072643E-16 -3.2324557183115786E-16
lhumerus -29.738359193432984 1.437479836545843 78.01417115102197
lradius 28.712251765804087
lwrist 3.124203260445997
lhand -23.83775858854487 23.35639515683807
lfingers 7.12502000000004
lthumb 2.5716515680468603 53.03429040305096
rfemur -5.297901961739143 -4.908902816950032 17.05736456625526
rtibia 39.311235597464595
rfoot -8.494200589159338 -7.754990238154711
rtoes 5.856536441941259
lfemur -12.619827746589408 -1.0073545009017124 -20.413149279432375
ltibia 33.63100733139069
lfoot -8.744864568694958 -1.2003779583153502
ltoes -2.630087538838243
